<svg xmlns="http://www.w3.org/2000/svg" xmlns:xlink="http://www.w3.org/1999/xlink" width="24" zoomAndPan="magnify" viewBox="0 0 375 374.999991" height="24" preserveAspectRatio="xMidYMid meet" version="1.0"><defs><g/><clipPath id="45801fa75f"><path d="M 112.5 132.050781 L 262 132.050781 L 262 192 L 112.5 192 Z M 112.5 132.050781 " clip-rule="nonzero"/></clipPath></defs><g clip-path="url(#45801fa75f)"><path fill="#ff3131" d="M 165.9375 138.804688 C 167.828125 139.035156 169.761719 139.21875 171.738281 139.3125 C 176.101562 136.417969 182.113281 135.375 188.785156 135.660156 C 189.675781 134.285156 191.113281 132.761719 194.433594 132.589844 C 205.003906 132.039062 217.863281 135.796875 227.933594 141.410156 C 227.949219 138.371094 228.164062 136.039062 230.34375 137 C 231.691406 137.597656 236.472656 139.511719 235.191406 142.898438 C 236.824219 143.152344 245.328125 147.007812 249.828125 152.894531 C 252.414062 153.316406 259.945312 156.332031 261.3125 158.566406 C 262.273438 160.136719 259.363281 162.472656 259.671875 165.289062 C 260.230469 170.390625 258.335938 172.621094 255.667969 173.125 C 255.308594 174.878906 254.265625 176.203125 253.269531 177.558594 C 253.714844 175.914062 254.015625 174.335938 253.472656 173.191406 C 251.101562 172.941406 248.503906 171.765625 246.546875 170.261719 C 244.367188 168.582031 242.773438 168.71875 241.839844 169.644531 C 239.71875 171.742188 240.636719 177.070312 247.164062 180.96875 C 248.34375 180.664062 249.074219 179.339844 249.730469 177.859375 C 249.664062 179.246094 249.644531 180.636719 248.992188 181.949219 C 249.511719 182.199219 250.0625 182.441406 250.640625 182.675781 C 249.0625 184.476562 246.351562 186.730469 243.136719 187.894531 C 241.46875 188.5 240.34375 185.773438 239.257812 182.804688 C 230.847656 180.777344 225.214844 183.277344 220.105469 186.003906 C 221.613281 186.542969 223.1875 187.238281 224.832031 188.117188 C 223.015625 187.300781 221.289062 186.691406 219.636719 186.257812 C 213.652344 189.484375 208.304688 192.847656 199.90625 189.300781 C 207.757812 191.761719 212.890625 188.863281 218.246094 185.925781 C 200.660156 182.214844 191.769531 198.050781 175.828125 188.363281 C 192.578125 196.457031 201.164062 180.148438 218.859375 185.589844 C 224.292969 182.625 230.070312 179.832031 239.222656 182.703125 C 238.1875 179.859375 237.1875 176.824219 235.789062 176.289062 C 233.101562 176.539062 225.589844 179.199219 222.90625 183.300781 C 221.640625 181.722656 220.671875 180.144531 219.964844 178.589844 C 218.597656 179.632812 217.214844 180.871094 215.828125 182.34375 C 216.785156 180.367188 218.027344 178.707031 219.441406 177.316406 C 218.921875 175.910156 218.609375 174.53125 218.472656 173.1875 C 217.480469 173.84375 216.445312 174.582031 215.359375 175.410156 C 216.289062 174.066406 217.3125 172.894531 218.398438 171.871094 C 218.367188 169.992188 218.675781 168.203125 219.242188 166.554688 C 218.136719 167.207031 216.996094 167.96875 215.824219 168.847656 C 217.042969 167.414062 218.378906 166.207031 219.785156 165.183594 C 221.851562 160.589844 225.90625 157.296875 229.792969 156.492188 C 225.6875 158.203125 222.929688 160.910156 221.394531 164.105469 C 228.191406 159.945312 236.132812 159.613281 240.4375 159.605469 C 239.4375 160.703125 238.71875 161.855469 238.554688 163.050781 C 235.976562 163.070312 229.507812 161.140625 220.734375 165.722656 C 220.210938 167.265625 219.945312 168.894531 219.917969 170.558594 C 226.25 165.570312 233.992188 164.960938 237.65625 164.980469 C 237.234375 165.949219 236.894531 166.9375 236.8125 167.941406 C 233.109375 167.929688 228.160156 167.25 219.972656 172.234375 C 220.078125 173.539062 220.328125 174.855469 220.714844 176.164062 C 225.929688 171.847656 232.78125 170.539062 236.386719 169.921875 C 236 170.851562 235.886719 171.785156 236.066406 172.726562 C 232.898438 173.074219 227.332031 173.5 221.226562 177.675781 C 221.703125 178.925781 222.304688 180.152344 223.027344 181.34375 C 226.789062 176.75 232.101562 175.859375 236.207031 174.625 C 239.886719 177.007812 240.144531 186.222656 243.1875 185.949219 C 245.496094 185.738281 246.960938 183.917969 247.921875 183.066406 C 243.492188 181.277344 235.820312 173.59375 241.316406 168.304688 C 244.769531 164.976562 252.441406 163.316406 256.089844 163.609375 C 249.621094 164.5625 244.695312 167.210938 247.472656 169.136719 C 254.90625 174.285156 259.523438 172.621094 258.476562 163.667969 C 258.152344 153.835938 241.074219 151.558594 234.445312 154.085938 C 237.4375 152.308594 240.640625 151.714844 244.285156 151.992188 C 244.058594 151.4375 243.609375 150.871094 243.296875 150.695312 C 242.140625 150.453125 239.296875 150.832031 237.949219 151.171875 C 239.664062 150.128906 242.289062 149.761719 243.523438 149.644531 C 244.128906 149.855469 245.304688 150.882812 246.292969 152.222656 C 246.796875 152.300781 247.308594 152.390625 247.828125 152.492188 C 244.671875 148.785156 238.917969 144.796875 233.96875 143.351562 C 235.433594 140.289062 231.726562 138.578125 230.527344 138.289062 C 228.976562 137.914062 228.980469 146.058594 230 147 C 229.152344 146.425781 228.050781 144.449219 227.90625 142.640625 C 218.734375 137.914062 206.820312 133.429688 194.511719 133.789062 C 192.558594 133.847656 191.207031 134.664062 190.164062 135.738281 C 202.914062 136.617188 217.769531 142.101562 228.09375 148.671875 C 221.878906 145.449219 204.449219 138.058594 189.300781 136.765625 C 189.039062 137.117188 188.796875 137.480469 188.566406 137.839844 C 182.804688 139.550781 177.113281 140.15625 171.484375 139.65625 C 170.875 140.023438 170.296875 140.421875 169.753906 140.859375 C 170.230469 140.421875 170.734375 140.015625 171.265625 139.636719 C 169.484375 139.46875 167.707031 139.191406 165.9375 138.804688 Z M 144.03125 177.96875 C 156.28125 184.292969 161.25 172.996094 171.089844 179.621094 C 160.859375 174.863281 156.144531 186.867188 144.03125 177.96875 Z M 125.710938 173.515625 C 143.175781 164.5 150.265625 180.609375 164.296875 171.15625 C 149.707031 177.941406 142.980469 160.828125 125.710938 173.515625 Z M 112.71875 160.390625 C 122.976562 155.089844 127.144531 164.554688 135.386719 159.003906 C 126.816406 162.988281 122.863281 152.933594 112.71875 160.390625 Z M 120.339844 155.507812 C 137.804688 146.488281 144.894531 162.601562 158.925781 153.148438 C 144.335938 159.933594 137.609375 142.816406 120.339844 155.507812 Z M 156.296875 187.394531 C 173.761719 178.375 180.851562 194.488281 194.882812 185.035156 C 180.292969 191.820312 173.566406 174.703125 156.296875 187.394531 Z M 126.03125 170.011719 C 154.738281 155.191406 166.394531 181.671875 189.457031 166.136719 C 165.472656 177.289062 154.421875 149.15625 126.03125 170.011719 Z M 202.886719 147.769531 C 202.171875 147.449219 201.472656 147.160156 200.78125 146.886719 C 193.878906 147.726562 187.941406 150.457031 182.050781 152.441406 C 193.785156 149.230469 205.28125 144.125 221.316406 157.53125 C 194.4375 141.78125 179.953125 166.917969 158.890625 151.558594 C 152.957031 152.824219 146.785156 152.539062 139.464844 148.089844 C 161.511719 156.882812 172.628906 133.207031 196.335938 144.066406 C 203.183594 142.835938 210.847656 143.742188 220.527344 150.210938 C 213.199219 146.914062 206.984375 146.234375 201.40625 146.816406 C 201.894531 147.121094 202.386719 147.4375 202.886719 147.769531 Z M 193.359375 144.738281 C 179.535156 142.230469 169.871094 149 159.601562 151.402344 C 172.847656 155.390625 182.199219 147.75 193.359375 144.738281 Z M 214.820312 182.59375 C 195.5625 168.941406 183.054688 187.3125 168.105469 173.675781 C 184.375 184.175781 196.671875 164.53125 214.820312 182.59375 Z M 214.691406 182.707031 C 199.851562 176.023438 193.824219 190.113281 181.898438 182.871094 C 194.300781 187.816406 200.015625 172.894531 214.691406 182.707031 Z M 209.945312 172.867188 C 191.371094 164.507812 183.828125 182.140625 168.910156 173.074219 C 184.425781 180.574219 191.574219 163.058594 209.945312 172.867188 Z M 214.535156 163.976562 C 192.351562 153.992188 183.34375 175.046875 165.527344 164.222656 C 184.058594 173.179688 192.597656 152.261719 214.535156 163.976562 Z M 216.273438 162.382812 C 190.925781 149.472656 179.222656 173.5625 159.015625 159.917969 C 180.160156 171.417969 191.308594 147.464844 216.273438 162.382812 Z M 172.054688 139.324219 C 177.125 139.535156 182.453125 139.101562 187.90625 137.128906 C 187.992188 136.992188 188.082031 136.839844 188.175781 136.683594 C 182.066406 136.28125 176.390625 136.933594 172.054688 139.324219 Z M 221.339844 158.625 C 192.632812 145.703125 180.976562 172.953125 157.917969 158.945312 C 181.898438 170.535156 192.949219 143.464844 221.339844 158.625 Z M 221.339844 158.625 " fill-opacity="1" fill-rule="evenodd"/></g><g fill="#ff3131" fill-opacity="1"><g transform="translate(98.729983, 231.749985)"><g><path d="M 3.609375 -21.808594 C 4.636719 -23.367188 5.207031 -25.265625 9.15625 -25.265625 L 10.296875 -25.265625 L 10.296875 -3.722656 C 10.257812 -3.039062 9.878906 -2.394531 9.234375 -2.089844 C 8.96875 -1.9375 8.699219 -1.785156 8.472656 -1.632812 C 7.863281 -1.179688 8.207031 0 8.96875 0 L 20.707031 0 C 21.503906 0 21.886719 -1.179688 21.238281 -1.632812 C 21.011719 -1.785156 20.785156 -1.9375 20.554688 -2.050781 C 19.984375 -2.433594 19.605469 -3.078125 19.605469 -3.722656 L 19.605469 -25.265625 L 20.707031 -25.265625 C 24.660156 -25.265625 25.265625 -23.367188 26.253906 -21.808594 C 26.671875 -21.203125 27.242188 -20.898438 27.773438 -20.898438 C 28.496094 -20.898438 29.066406 -21.429688 28.875 -22.492188 C 28.6875 -23.824219 28.304688 -25.378906 28.078125 -26.40625 C 27.886719 -27.089844 27.320312 -27.507812 26.632812 -27.507812 L 3.230469 -27.507812 C 2.546875 -27.507812 1.976562 -27.089844 1.824219 -26.40625 C 1.558594 -25.378906 1.179688 -23.824219 0.988281 -22.492188 C 0.796875 -21.429688 1.367188 -20.898438 2.089844 -20.898438 C 2.621094 -20.898438 3.191406 -21.203125 3.609375 -21.808594 Z M 3.609375 -21.808594 "/></g></g></g><g fill="#ff3131" fill-opacity="1"><g transform="translate(128.591885, 231.749985)"><g><path d="M 1.785156 0 L 6.914062 0 C 7.675781 0 8.015625 -1.179688 7.371094 -1.632812 C 7.257812 -1.710938 7.144531 -1.785156 7.027344 -1.863281 C 6.496094 -2.242188 6.269531 -2.964844 6.535156 -3.648438 L 6.648438 -4.027344 L 7.980469 -7.445312 L 19.378906 -7.445312 L 20.707031 -3.800781 C 20.898438 -3.191406 20.667969 -2.546875 20.136719 -2.089844 C 19.910156 -1.9375 19.71875 -1.746094 19.53125 -1.632812 C 18.882812 -1.179688 19.226562 0 19.984375 0 L 32.902344 0 C 33.703125 0 34.042969 -1.179688 33.398438 -1.632812 C 33.167969 -1.785156 32.902344 -1.9375 32.675781 -2.089844 C 32.066406 -2.433594 31.496094 -3.039062 31.230469 -3.648438 L 21.847656 -27.394531 C 21.621094 -28.039062 20.972656 -28.496094 20.289062 -28.535156 L 12.460938 -28.988281 C 11.816406 -29.027344 11.511719 -28.648438 11.742188 -28.003906 L 12.613281 -25.648438 L 3.722656 -3.648438 C 3.496094 -3.078125 2.925781 -2.546875 2.242188 -2.203125 C 1.863281 -2.015625 1.597656 -1.824219 1.292969 -1.632812 C 0.644531 -1.179688 0.988281 0 1.785156 0 Z M 13.867188 -22.265625 L 18.542969 -9.6875 L 8.890625 -9.6875 Z M 13.867188 -22.265625 "/></g></g></g><g fill="#ff3131" fill-opacity="1"><g transform="translate(163.278799, 231.749985)"><g><path d="M 1.785156 0 L 6.914062 0 C 7.675781 0 8.015625 -1.179688 7.371094 -1.632812 C 7.257812 -1.710938 7.144531 -1.785156 7.027344 -1.863281 C 6.496094 -2.242188 6.269531 -2.964844 6.535156 -3.648438 L 6.648438 -4.027344 L 7.980469 -7.445312 L 19.378906 -7.445312 L 20.707031 -3.800781 C 20.898438 -3.191406 20.667969 -2.546875 20.136719 -2.089844 C 19.910156 -1.9375 19.71875 -1.746094 19.53125 -1.632812 C 18.882812 -1.179688 19.226562 0 19.984375 0 L 32.902344 0 C 33.703125 0 34.042969 -1.179688 33.398438 -1.632812 C 33.167969 -1.785156 32.902344 -1.9375 32.675781 -2.089844 C 32.066406 -2.433594 31.496094 -3.039062 31.230469 -3.648438 L 21.847656 -27.394531 C 21.621094 -28.039062 20.972656 -28.496094 20.289062 -28.535156 L 12.460938 -28.988281 C 11.816406 -29.027344 11.511719 -28.648438 11.742188 -28.003906 L 12.613281 -25.648438 L 3.722656 -3.648438 C 3.496094 -3.078125 2.925781 -2.546875 2.242188 -2.203125 C 1.863281 -2.015625 1.597656 -1.824219 1.292969 -1.632812 C 0.644531 -1.179688 0.988281 0 1.785156 0 Z M 13.867188 -22.265625 L 18.542969 -9.6875 L 8.890625 -9.6875 Z M 13.867188 -22.265625 "/></g></g></g><g fill="#ff3131" fill-opacity="1"><g transform="translate(197.965713, 231.749985)"><g><path d="M 1.101562 -25.914062 C 1.328125 -25.761719 1.597656 -25.609375 1.824219 -25.457031 C 2.433594 -25.113281 3.078125 -24.582031 3.457031 -24.050781 L 12.613281 -9.765625 L 12.613281 -3.761719 C 12.613281 -3.078125 12.195312 -2.433594 11.589844 -2.128906 C 11.285156 -1.976562 11.019531 -1.824219 10.828125 -1.671875 C 10.183594 -1.214844 10.523438 -0.0390625 11.285156 -0.0390625 L 23.0625 -0.0390625 C 23.824219 -0.0390625 24.203125 -1.214844 23.558594 -1.671875 C 23.328125 -1.824219 23.101562 -1.976562 22.910156 -2.089844 C 22.304688 -2.46875 21.921875 -3.117188 21.921875 -3.761719 L 21.921875 -9.953125 L 30.128906 -24.050781 C 30.394531 -24.46875 30.929688 -24.960938 31.726562 -25.417969 C 31.992188 -25.570312 32.183594 -25.722656 32.449219 -25.914062 C 33.09375 -26.367188 32.75 -27.546875 31.953125 -27.546875 L 26.75 -27.546875 C 25.988281 -27.546875 25.648438 -26.367188 26.292969 -25.914062 C 26.445312 -25.835938 26.597656 -25.722656 26.785156 -25.609375 C 27.320312 -25.265625 27.507812 -24.542969 27.167969 -23.898438 L 21.050781 -13.261719 L 14.703125 -23.671875 L 14.742188 -23.671875 L 14.628906 -23.859375 C 14.285156 -24.394531 14.324219 -25.113281 14.742188 -25.683594 C 14.816406 -25.761719 14.894531 -25.835938 14.96875 -25.914062 C 15.617188 -26.367188 15.273438 -27.546875 14.515625 -27.546875 L 1.597656 -27.546875 C 0.796875 -27.546875 0.457031 -26.367188 1.101562 -25.914062 Z M 1.101562 -25.914062 "/></g></g></g><g fill="#ff3131" fill-opacity="1"><g transform="translate(230.753011, 231.749985)"><g><path d="M 3.078125 0 L 14.855469 0 C 15.652344 0 15.996094 -1.179688 15.351562 -1.632812 C 15.121094 -1.785156 14.894531 -1.9375 14.703125 -2.050781 C 14.097656 -2.433594 13.714844 -3.078125 13.714844 -3.722656 L 13.714844 -23.824219 C 13.714844 -24.46875 14.097656 -25.113281 14.703125 -25.496094 C 14.894531 -25.609375 15.121094 -25.761719 15.351562 -25.914062 C 15.996094 -26.367188 15.652344 -27.546875 14.855469 -27.546875 L 3.078125 -27.546875 C 2.316406 -27.546875 1.976562 -26.367188 2.621094 -25.914062 C 2.8125 -25.761719 3.078125 -25.609375 3.382812 -25.457031 C 3.988281 -25.152344 4.40625 -24.507812 4.40625 -23.824219 L 4.40625 -3.722656 C 4.40625 -3.039062 3.988281 -2.394531 3.382812 -2.089844 C 3.078125 -1.9375 2.8125 -1.785156 2.621094 -1.632812 C 1.976562 -1.179688 2.316406 0 3.078125 0 Z M 3.078125 0 "/></g></g></g><g fill="#ff3131" fill-opacity="1"><g transform="translate(248.723335, 231.749985)"><g><path d="M 1.101562 -25.796875 C 1.292969 -25.683594 1.558594 -25.53125 1.863281 -25.378906 C 2.46875 -25.039062 2.886719 -24.394531 2.886719 -23.707031 L 2.886719 -3.570312 C 2.8125 -2.964844 2.433594 -2.355469 1.863281 -2.089844 C 1.597656 -1.9375 1.292969 -1.785156 1.101562 -1.632812 C 0.457031 -1.179688 0.796875 0 1.597656 0 L 13.335938 0 C 14.132812 0 14.476562 -1.179688 13.832031 -1.632812 C 13.601562 -1.785156 13.414062 -1.9375 13.183594 -2.050781 C 12.578125 -2.433594 12.195312 -3.078125 12.195312 -3.722656 L 12.195312 -11.285156 L 12.996094 -11.285156 C 14.894531 -11.246094 16.375 -10.714844 18.160156 -6.6875 L 19.378906 -3.835938 L 19.339844 -3.835938 L 19.453125 -3.609375 C 19.71875 -2.964844 19.53125 -2.355469 18.882812 -2.050781 C 18.65625 -1.898438 18.390625 -1.785156 18.199219 -1.632812 C 17.554688 -1.179688 17.894531 0 18.695312 0 L 31.726562 0 C 32.523438 0 32.867188 -1.179688 32.21875 -1.632812 C 32.03125 -1.746094 31.878906 -1.824219 31.6875 -1.898438 C 31.042969 -2.128906 30.433594 -2.660156 30.128906 -3.304688 L 27.964844 -7.863281 C 26.824219 -10.675781 25.230469 -12.082031 23.746094 -12.347656 C 28.269531 -13.601562 30.890625 -15.882812 30.890625 -19.300781 C 30.890625 -24.773438 24.242188 -27.507812 13.753906 -27.46875 L 1.558594 -27.433594 C 0.796875 -27.433594 0.457031 -26.253906 1.101562 -25.796875 Z M 12.195312 -24.011719 C 12.195312 -24.695312 12.652344 -25.191406 13.335938 -25.191406 C 19.035156 -25.152344 21.582031 -23.289062 21.582031 -19.261719 C 21.582031 -15.273438 18.960938 -13.5625 13.335938 -13.5625 C 12.652344 -13.5625 12.195312 -14.019531 12.195312 -14.703125 Z M 12.195312 -24.011719 "/></g></g></g><path stroke-linecap="round" transform="matrix(0.746263, 0, 0, 0.75, 89.931963, 192.299987)" fill="none" stroke-linejoin="miter" d="M 0.499454 0.501059 L 77.895546 0.501059 " stroke="#ff3131" stroke-width="1" stroke-opacity="1" stroke-miterlimit="4"/><path stroke-linecap="round" transform="matrix(0.746269, 0, 0, 0.75, 253.535261, 193.049987)" fill="none" stroke-linejoin="miter" d="M 0.50236 0.501059 L 49.763067 0.501059 " stroke="#ff3131" stroke-width="1" stroke-opacity="1" stroke-miterlimit="4"/><g fill="#ff3131" fill-opacity="1"><g transform="translate(164.498365, 242.156365)"><g><path d="M 0.359375 -0.375 C 0.742188 -0.414062 1.050781 -0.503906 1.28125 -0.640625 L 1.28125 -6.046875 C 1.019531 -6.171875 0.691406 -6.257812 0.296875 -6.3125 L 0.34375 -6.671875 L 3.125 -6.671875 L 3.0625 -6.3125 C 2.707031 -6.257812 2.40625 -6.171875 2.15625 -6.046875 L 2.15625 -0.640625 C 2.375 -0.515625 2.695312 -0.425781 3.125 -0.375 L 3.078125 0 L 0.296875 0 Z M 0.359375 -0.375 "/></g></g></g><g fill="#ff3131" fill-opacity="1"><g transform="translate(167.927014, 242.156365)"><g><path d="M 0.296875 -0.375 C 0.453125 -0.394531 0.578125 -0.421875 0.671875 -0.453125 C 0.765625 -0.484375 0.859375 -0.539062 0.953125 -0.625 L 0.953125 -5.671875 C 0.953125 -5.921875 0.898438 -6.085938 0.796875 -6.171875 C 0.703125 -6.265625 0.523438 -6.316406 0.265625 -6.328125 L 0.296875 -6.625 C 0.554688 -6.664062 0.828125 -6.726562 1.109375 -6.8125 C 1.390625 -6.894531 1.5625 -6.945312 1.625 -6.96875 L 1.8125 -6.875 L 1.8125 -0.625 C 1.976562 -0.5 2.210938 -0.40625 2.515625 -0.34375 L 2.46875 0 L 0.265625 0 Z M 0.296875 -0.375 "/></g></g></g><g fill="#ff3131" fill-opacity="1"><g transform="translate(170.635945, 242.156365)"><g><path d="M 1.5625 0.0625 C 1.144531 0.0625 0.820312 -0.0351562 0.59375 -0.234375 C 0.375 -0.429688 0.265625 -0.707031 0.265625 -1.0625 C 0.265625 -1.5 0.421875 -1.84375 0.734375 -2.09375 C 1.054688 -2.34375 1.519531 -2.488281 2.125 -2.53125 L 2.953125 -2.59375 L 2.953125 -3.40625 C 2.953125 -3.738281 2.878906 -3.976562 2.734375 -4.125 C 2.597656 -4.28125 2.375 -4.359375 2.0625 -4.359375 C 1.789062 -4.359375 1.582031 -4.316406 1.4375 -4.234375 C 1.300781 -4.160156 1.234375 -4.050781 1.234375 -3.90625 C 1.234375 -3.738281 1.332031 -3.617188 1.53125 -3.546875 C 1.53125 -3.390625 1.476562 -3.269531 1.375 -3.1875 C 1.28125 -3.101562 1.140625 -3.0625 0.953125 -3.0625 C 0.785156 -3.0625 0.644531 -3.113281 0.53125 -3.21875 C 0.425781 -3.320312 0.375 -3.460938 0.375 -3.640625 C 0.375 -3.984375 0.523438 -4.253906 0.828125 -4.453125 C 1.140625 -4.660156 1.550781 -4.765625 2.0625 -4.765625 C 2.601562 -4.765625 3.023438 -4.644531 3.328125 -4.40625 C 3.640625 -4.164062 3.796875 -3.832031 3.796875 -3.40625 L 3.796875 -0.609375 C 3.859375 -0.566406 3.957031 -0.515625 4.09375 -0.453125 C 4.226562 -0.398438 4.363281 -0.363281 4.5 -0.34375 L 4.453125 0 L 3.078125 0 L 2.984375 -0.453125 C 2.773438 -0.253906 2.554688 -0.117188 2.328125 -0.046875 C 2.097656 0.0234375 1.84375 0.0625 1.5625 0.0625 Z M 1.8125 -0.34375 C 2 -0.34375 2.179688 -0.382812 2.359375 -0.46875 C 2.535156 -0.5625 2.734375 -0.710938 2.953125 -0.921875 L 2.953125 -2.1875 L 2.15625 -2.109375 C 1.84375 -2.078125 1.59375 -1.976562 1.40625 -1.8125 C 1.226562 -1.644531 1.140625 -1.425781 1.140625 -1.15625 C 1.140625 -0.613281 1.363281 -0.34375 1.8125 -0.34375 Z M 1.8125 -0.34375 "/></g></g></g><g fill="#ff3131" fill-opacity="1"><g transform="translate(175.334088, 242.156365)"><g/></g></g><g fill="#ff3131" fill-opacity="1"><g transform="translate(177.533219, 242.156365)"><g><path d="M 0.34375 -0.359375 C 0.5 -0.390625 0.625 -0.421875 0.71875 -0.453125 C 0.8125 -0.484375 0.90625 -0.539062 1 -0.625 L 1 -3.46875 C 1 -3.71875 0.945312 -3.882812 0.84375 -3.96875 C 0.75 -4.0625 0.566406 -4.113281 0.296875 -4.125 L 0.328125 -4.421875 C 0.566406 -4.460938 0.867188 -4.539062 1.234375 -4.65625 C 1.273438 -4.675781 1.382812 -4.710938 1.5625 -4.765625 L 1.734375 -4.671875 L 1.8125 -4.15625 C 1.925781 -4.28125 2.082031 -4.410156 2.28125 -4.546875 C 2.488281 -4.691406 2.738281 -4.765625 3.03125 -4.765625 C 3.644531 -4.765625 4.082031 -4.554688 4.34375 -4.140625 C 4.550781 -4.328125 4.757812 -4.476562 4.96875 -4.59375 C 5.1875 -4.707031 5.425781 -4.765625 5.6875 -4.765625 C 6.132812 -4.765625 6.503906 -4.640625 6.796875 -4.390625 C 7.085938 -4.148438 7.234375 -3.773438 7.234375 -3.265625 L 7.234375 -0.625 C 7.296875 -0.570312 7.390625 -0.515625 7.515625 -0.453125 C 7.648438 -0.398438 7.789062 -0.363281 7.9375 -0.34375 L 7.890625 0 L 5.703125 0 L 5.71875 -0.34375 C 5.96875 -0.382812 6.1875 -0.476562 6.375 -0.625 L 6.375 -3.296875 C 6.375 -3.628906 6.304688 -3.875 6.171875 -4.03125 C 6.046875 -4.195312 5.851562 -4.28125 5.59375 -4.28125 C 5.375 -4.28125 5.171875 -4.210938 4.984375 -4.078125 C 4.796875 -3.941406 4.65625 -3.785156 4.5625 -3.609375 L 4.5625 -0.625 C 4.625 -0.570312 4.722656 -0.515625 4.859375 -0.453125 C 4.992188 -0.398438 5.128906 -0.363281 5.265625 -0.34375 L 5.234375 0 L 3.03125 0 L 3.0625 -0.34375 C 3.3125 -0.382812 3.53125 -0.476562 3.71875 -0.625 L 3.71875 -3.296875 C 3.71875 -3.628906 3.648438 -3.875 3.515625 -4.03125 C 3.390625 -4.195312 3.195312 -4.28125 2.9375 -4.28125 C 2.695312 -4.28125 2.472656 -4.195312 2.265625 -4.03125 C 2.054688 -3.875 1.921875 -3.695312 1.859375 -3.5 L 1.859375 -0.625 C 2.015625 -0.5 2.242188 -0.40625 2.546875 -0.34375 L 2.515625 0 L 0.296875 0 Z M 0.34375 -0.359375 "/></g></g></g><g fill="#ff3131" fill-opacity="1"><g transform="translate(185.660011, 242.156365)"><g><path d="M 2.375 0.0625 C 1.625 0.0625 1.085938 -0.140625 0.765625 -0.546875 C 0.441406 -0.953125 0.28125 -1.5625 0.28125 -2.375 C 0.28125 -3.113281 0.457031 -3.695312 0.8125 -4.125 C 1.164062 -4.550781 1.6875 -4.765625 2.375 -4.765625 C 3.03125 -4.765625 3.488281 -4.585938 3.75 -4.234375 C 4.019531 -3.890625 4.164062 -3.378906 4.1875 -2.703125 L 3.984375 -2.4375 L 1.203125 -2.4375 L 1.203125 -2.375 C 1.203125 -1.945312 1.226562 -1.59375 1.28125 -1.3125 C 1.332031 -1.039062 1.445312 -0.820312 1.625 -0.65625 C 1.8125 -0.5 2.082031 -0.421875 2.4375 -0.421875 C 2.695312 -0.421875 2.9375 -0.46875 3.15625 -0.5625 C 3.375 -0.664062 3.554688 -0.773438 3.703125 -0.890625 L 3.953125 -0.59375 C 3.785156 -0.4375 3.566406 -0.285156 3.296875 -0.140625 C 3.035156 -0.00390625 2.726562 0.0625 2.375 0.0625 Z M 3.296875 -2.875 C 3.296875 -3.394531 3.222656 -3.769531 3.078125 -4 C 2.941406 -4.238281 2.691406 -4.359375 2.328125 -4.359375 C 1.953125 -4.359375 1.671875 -4.21875 1.484375 -3.9375 C 1.304688 -3.664062 1.210938 -3.285156 1.203125 -2.796875 Z M 3.296875 -2.875 "/></g></g></g><g fill="#ff3131" fill-opacity="1"><g transform="translate(190.068275, 242.156365)"><g><path d="M 2.375 0.0625 C 1.625 0.0625 1.085938 -0.140625 0.765625 -0.546875 C 0.441406 -0.953125 0.28125 -1.5625 0.28125 -2.375 C 0.28125 -3.113281 0.457031 -3.695312 0.8125 -4.125 C 1.164062 -4.550781 1.6875 -4.765625 2.375 -4.765625 C 3.03125 -4.765625 3.488281 -4.585938 3.75 -4.234375 C 4.019531 -3.890625 4.164062 -3.378906 4.1875 -2.703125 L 3.984375 -2.4375 L 1.203125 -2.4375 L 1.203125 -2.375 C 1.203125 -1.945312 1.226562 -1.59375 1.28125 -1.3125 C 1.332031 -1.039062 1.445312 -0.820312 1.625 -0.65625 C 1.8125 -0.5 2.082031 -0.421875 2.4375 -0.421875 C 2.695312 -0.421875 2.9375 -0.46875 3.15625 -0.5625 C 3.375 -0.664062 3.554688 -0.773438 3.703125 -0.890625 L 3.953125 -0.59375 C 3.785156 -0.4375 3.566406 -0.285156 3.296875 -0.140625 C 3.035156 -0.00390625 2.726562 0.0625 2.375 0.0625 Z M 3.296875 -2.875 C 3.296875 -3.394531 3.222656 -3.769531 3.078125 -4 C 2.941406 -4.238281 2.691406 -4.359375 2.328125 -4.359375 C 1.953125 -4.359375 1.671875 -4.21875 1.484375 -3.9375 C 1.304688 -3.664062 1.210938 -3.285156 1.203125 -2.796875 Z M 3.296875 -2.875 "/></g></g></g><g fill="#ff3131" fill-opacity="1"><g transform="translate(194.476539, 242.156365)"><g><path d="M 0.34375 -0.359375 C 0.488281 -0.390625 0.609375 -0.421875 0.703125 -0.453125 C 0.796875 -0.484375 0.894531 -0.539062 1 -0.625 L 1 -3.46875 C 1 -3.71875 0.945312 -3.882812 0.84375 -3.96875 C 0.738281 -4.0625 0.554688 -4.113281 0.296875 -4.125 L 0.328125 -4.421875 C 0.535156 -4.460938 0.832031 -4.539062 1.21875 -4.65625 L 1.546875 -4.765625 L 1.734375 -4.671875 L 1.828125 -3.96875 C 1.984375 -4.195312 2.164062 -4.382812 2.375 -4.53125 C 2.582031 -4.6875 2.800781 -4.765625 3.03125 -4.765625 C 3.269531 -4.765625 3.476562 -4.691406 3.65625 -4.546875 C 3.832031 -4.410156 3.921875 -4.210938 3.921875 -3.953125 C 3.921875 -3.785156 3.867188 -3.632812 3.765625 -3.5 C 3.671875 -3.375 3.546875 -3.3125 3.390625 -3.3125 C 3.273438 -3.3125 3.164062 -3.335938 3.0625 -3.390625 C 2.96875 -3.453125 2.90625 -3.53125 2.875 -3.625 C 2.90625 -3.65625 2.929688 -3.695312 2.953125 -3.75 C 2.972656 -3.8125 2.984375 -3.863281 2.984375 -3.90625 C 2.984375 -4.101562 2.890625 -4.203125 2.703125 -4.203125 C 2.578125 -4.203125 2.445312 -4.140625 2.3125 -4.015625 C 2.1875 -3.890625 2.078125 -3.726562 1.984375 -3.53125 C 1.890625 -3.332031 1.84375 -3.132812 1.84375 -2.9375 L 1.84375 -0.625 C 2.03125 -0.5 2.296875 -0.40625 2.640625 -0.34375 L 2.59375 0 L 0.296875 0 Z M 0.34375 -0.359375 "/></g></g></g><g fill="#ff3131" fill-opacity="1"><g transform="translate(198.434981, 242.156365)"><g><path d="M 1.5625 0.0625 C 1.144531 0.0625 0.820312 -0.0351562 0.59375 -0.234375 C 0.375 -0.429688 0.265625 -0.707031 0.265625 -1.0625 C 0.265625 -1.5 0.421875 -1.84375 0.734375 -2.09375 C 1.054688 -2.34375 1.519531 -2.488281 2.125 -2.53125 L 2.953125 -2.59375 L 2.953125 -3.40625 C 2.953125 -3.738281 2.878906 -3.976562 2.734375 -4.125 C 2.597656 -4.28125 2.375 -4.359375 2.0625 -4.359375 C 1.789062 -4.359375 1.582031 -4.316406 1.4375 -4.234375 C 1.300781 -4.160156 1.234375 -4.050781 1.234375 -3.90625 C 1.234375 -3.738281 1.332031 -3.617188 1.53125 -3.546875 C 1.53125 -3.390625 1.476562 -3.269531 1.375 -3.1875 C 1.28125 -3.101562 1.140625 -3.0625 0.953125 -3.0625 C 0.785156 -3.0625 0.644531 -3.113281 0.53125 -3.21875 C 0.425781 -3.320312 0.375 -3.460938 0.375 -3.640625 C 0.375 -3.984375 0.523438 -4.253906 0.828125 -4.453125 C 1.140625 -4.660156 1.550781 -4.765625 2.0625 -4.765625 C 2.601562 -4.765625 3.023438 -4.644531 3.328125 -4.40625 C 3.640625 -4.164062 3.796875 -3.832031 3.796875 -3.40625 L 3.796875 -0.609375 C 3.859375 -0.566406 3.957031 -0.515625 4.09375 -0.453125 C 4.226562 -0.398438 4.363281 -0.363281 4.5 -0.34375 L 4.453125 0 L 3.078125 0 L 2.984375 -0.453125 C 2.773438 -0.253906 2.554688 -0.117188 2.328125 -0.046875 C 2.097656 0.0234375 1.84375 0.0625 1.5625 0.0625 Z M 1.8125 -0.34375 C 2 -0.34375 2.179688 -0.382812 2.359375 -0.46875 C 2.535156 -0.5625 2.734375 -0.710938 2.953125 -0.921875 L 2.953125 -2.1875 L 2.15625 -2.109375 C 1.84375 -2.078125 1.59375 -1.976562 1.40625 -1.8125 C 1.226562 -1.644531 1.140625 -1.425781 1.140625 -1.15625 C 1.140625 -0.613281 1.363281 -0.34375 1.8125 -0.34375 Z M 1.8125 -0.34375 "/></g></g></g><g fill="#ff3131" fill-opacity="1"><g transform="translate(203.133124, 242.156365)"><g><path d="M 1.0625 2.1875 C 0.800781 2.1875 0.582031 2.113281 0.40625 1.96875 C 0.238281 1.820312 0.15625 1.632812 0.15625 1.40625 C 0.15625 1.226562 0.203125 1.085938 0.296875 0.984375 C 0.390625 0.890625 0.503906 0.84375 0.640625 0.84375 C 0.753906 0.84375 0.867188 0.878906 0.984375 0.953125 C 0.910156 1.066406 0.875 1.179688 0.875 1.296875 C 0.875 1.398438 0.898438 1.484375 0.953125 1.546875 C 1.015625 1.609375 1.097656 1.640625 1.203125 1.640625 C 1.347656 1.640625 1.472656 1.566406 1.578125 1.421875 C 1.679688 1.273438 1.789062 1.046875 1.90625 0.734375 L 2.109375 0.078125 L 0.484375 -3.921875 C 0.429688 -4.035156 0.351562 -4.125 0.25 -4.1875 C 0.144531 -4.257812 -0.015625 -4.316406 -0.234375 -4.359375 L -0.21875 -4.671875 L 1.953125 -4.671875 L 1.9375 -4.375 C 1.800781 -4.351562 1.6875 -4.328125 1.59375 -4.296875 C 1.5 -4.273438 1.414062 -4.226562 1.34375 -4.15625 L 2.5 -1.09375 L 3.484375 -4.15625 C 3.335938 -4.257812 3.144531 -4.332031 2.90625 -4.375 L 2.921875 -4.671875 L 4.875 -4.671875 L 4.84375 -4.375 C 4.582031 -4.332031 4.398438 -4.285156 4.296875 -4.234375 C 4.203125 -4.191406 4.140625 -4.128906 4.109375 -4.046875 L 2.421875 0.84375 C 2.253906 1.320312 2.066406 1.664062 1.859375 1.875 C 1.648438 2.082031 1.382812 2.1875 1.0625 2.1875 Z M 1.0625 2.1875 "/></g></g></g><g fill="#ff3131" fill-opacity="1"><g transform="translate(207.951224, 242.156365)"><g><path d="M 1.828125 0.0625 C 1.597656 0.0625 1.328125 0.0234375 1.015625 -0.046875 C 0.710938 -0.128906 0.488281 -0.21875 0.34375 -0.3125 L 0.34375 -1.546875 L 0.875 -1.625 C 0.894531 -1.34375 0.921875 -1.117188 0.953125 -0.953125 C 0.992188 -0.785156 1.054688 -0.628906 1.140625 -0.484375 C 1.347656 -0.421875 1.601562 -0.390625 1.90625 -0.390625 C 2.175781 -0.390625 2.398438 -0.460938 2.578125 -0.609375 C 2.753906 -0.753906 2.84375 -0.9375 2.84375 -1.15625 C 2.84375 -1.375 2.753906 -1.535156 2.578125 -1.640625 C 2.410156 -1.753906 2.144531 -1.878906 1.78125 -2.015625 C 1.46875 -2.117188 1.21875 -2.21875 1.03125 -2.3125 C 0.84375 -2.414062 0.679688 -2.5625 0.546875 -2.75 C 0.410156 -2.9375 0.34375 -3.175781 0.34375 -3.46875 C 0.34375 -3.863281 0.488281 -4.175781 0.78125 -4.40625 C 1.082031 -4.632812 1.492188 -4.75 2.015625 -4.75 C 2.296875 -4.75 2.554688 -4.703125 2.796875 -4.609375 C 3.035156 -4.523438 3.222656 -4.410156 3.359375 -4.265625 C 3.492188 -4.117188 3.5625 -3.953125 3.5625 -3.765625 C 3.5625 -3.421875 3.410156 -3.25 3.109375 -3.25 C 2.984375 -3.25 2.878906 -3.269531 2.796875 -3.3125 C 2.710938 -3.351562 2.632812 -3.421875 2.5625 -3.515625 C 2.675781 -3.597656 2.734375 -3.71875 2.734375 -3.875 C 2.734375 -4.019531 2.660156 -4.132812 2.515625 -4.21875 C 2.367188 -4.300781 2.179688 -4.34375 1.953125 -4.34375 C 1.691406 -4.34375 1.484375 -4.28125 1.328125 -4.15625 C 1.171875 -4.039062 1.09375 -3.882812 1.09375 -3.6875 C 1.09375 -3.519531 1.144531 -3.378906 1.25 -3.265625 C 1.351562 -3.148438 1.476562 -3.0625 1.625 -3 C 1.769531 -2.9375 1.984375 -2.859375 2.265625 -2.765625 C 2.546875 -2.648438 2.773438 -2.539062 2.953125 -2.4375 C 3.140625 -2.34375 3.296875 -2.207031 3.421875 -2.03125 C 3.554688 -1.851562 3.625 -1.628906 3.625 -1.359375 C 3.625 -0.910156 3.46875 -0.5625 3.15625 -0.3125 C 2.84375 -0.0625 2.398438 0.0625 1.828125 0.0625 Z M 1.828125 0.0625 "/></g></g></g><g fill="#ff3131" fill-opacity="1"><g transform="translate(211.869681, 242.156365)"><g><path d="M 2.40625 0.0625 C 1.695312 0.0625 1.164062 -0.140625 0.8125 -0.546875 C 0.457031 -0.960938 0.28125 -1.5625 0.28125 -2.34375 C 0.28125 -3.132812 0.457031 -3.734375 0.8125 -4.140625 C 1.164062 -4.554688 1.695312 -4.765625 2.40625 -4.765625 C 3.101562 -4.765625 3.628906 -4.554688 3.984375 -4.140625 C 4.335938 -3.734375 4.515625 -3.132812 4.515625 -2.34375 C 4.515625 -1.5625 4.335938 -0.960938 3.984375 -0.546875 C 3.628906 -0.140625 3.101562 0.0625 2.40625 0.0625 Z M 2.40625 -0.390625 C 2.832031 -0.390625 3.144531 -0.539062 3.34375 -0.84375 C 3.539062 -1.15625 3.640625 -1.65625 3.640625 -2.34375 C 3.640625 -3.039062 3.539062 -3.539062 3.34375 -3.84375 C 3.15625 -4.144531 2.84375 -4.296875 2.40625 -4.296875 C 1.96875 -4.296875 1.65625 -4.144531 1.46875 -3.84375 C 1.28125 -3.539062 1.1875 -3.039062 1.1875 -2.34375 C 1.1875 -1.65625 1.28125 -1.15625 1.46875 -0.84375 C 1.65625 -0.539062 1.96875 -0.390625 2.40625 -0.390625 Z M 2.40625 -0.390625 "/></g></g></g></svg>